<svg xmlns="http://www.w3.org/2000/svg" viewBox="0 0 240 132" class="game-art-cover" aria-hidden="true" focusable="false"><defs><linearGradient id="beebo-art-14-gold" x1="0" y1="0" x2="1" y2="1"><stop offset="0" stop-color="#fff0b0"/><stop offset="1" stop-color="#bf842d"/></linearGradient><linearGradient id="beebo-art-14-purple" x1="0" y1="0" x2="1" y2="1"><stop offset="0" stop-color="#d7c4ff"/><stop offset="1" stop-color="#7045ba"/></linearGradient><linearGradient id="beebo-art-14-blue" x1="0" y1="0" x2="1" y2="1"><stop offset="0" stop-color="#92e5f1"/><stop offset="1" stop-color="#267695"/></linearGradient><linearGradient id="beebo-art-14-ivory" x1="0" y1="0" x2="1" y2="1"><stop offset="0" stop-color="#fffdf3"/><stop offset="1" stop-color="#cfbaa0"/></linearGradient><linearGradient id="beebo-art-14-ink" x1="0" y1="0" x2="1" y2="1"><stop offset="0" stop-color="#425373"/><stop offset="1" stop-color="#111c32"/></linearGradient><linearGradient id="beebo-art-14-wood" x1="0" y1="0" x2="1" y2="1"><stop offset="0" stop-color="#ac7346"/><stop offset="1" stop-color="#593726"/></linearGradient></defs><rect width="240" height="132" rx="18" fill="#514374"/><circle cx="205" cy="10" r="92" fill="#e5c975" opacity="0.11"/><circle cx="28" cy="139" r="105" fill="#071321" opacity="0.2"/><path d="M 26 26 H 34 M 30 22 V 30" stroke="#e5c975" stroke-width="1" opacity="0.5"/><path d="M 201 97 H 213 M 207 91 V 103" stroke="#e5c975" stroke-width="1" opacity="0.5"/><path d="M 182 23 H 188 M 185 20 V 26" stroke="#e5c975" stroke-width="1" opacity="0.5"/><path d="M 39 108 H 45 M 42 105 V 111" stroke="#e5c975" stroke-width="1" opacity="0.5"/><ellipse cx="123" cy="115" rx="77" ry="9" fill="#091523" opacity="0.25"/><g transform="translate(55 38) scale(1) rotate(-14)"><rect width="51" height="51" rx="10" fill="url(#beebo-art-14-ivory)" stroke="#d5b67e" stroke-width="2"/><svg viewBox="0 0 60 60" class="art-pips" aria-hidden="true" focusable="false" width="51" height="51"><circle cx="15" cy="16" r="5.5" fill="#000" opacity="0.12"/><circle cx="15" cy="15" r="5" fill="#172945"/><circle cx="45" cy="16" r="5.5" fill="#000" opacity="0.12"/><circle cx="45" cy="15" r="5" fill="#172945"/><circle cx="30" cy="31" r="5.5" fill="#000" opacity="0.12"/><circle cx="30" cy="30" r="5" fill="#172945"/><circle cx="15" cy="46" r="5.5" fill="#000" opacity="0.12"/><circle cx="15" cy="45" r="5" fill="#172945"/><circle cx="45" cy="46" r="5.5" fill="#000" opacity="0.12"/><circle cx="45" cy="45" r="5" fill="#172945"/></svg></g><g transform="translate(113 17) scale(1) rotate(13)"><rect width="51" height="51" rx="10" fill="url(#beebo-art-14-ivory)" stroke="#d5b67e" stroke-width="2"/><svg viewBox="0 0 60 60" class="art-pips" aria-hidden="true" focusable="false" width="51" height="51"><circle cx="15" cy="14" r="5.5" fill="#000" opacity="0.12"/><circle cx="15" cy="13" r="5" fill="#172945"/><circle cx="45" cy="14" r="5.5" fill="#000" opacity="0.12"/><circle cx="45" cy="13" r="5" fill="#172945"/><circle cx="15" cy="31" r="5.5" fill="#000" opacity="0.12"/><circle cx="15" cy="30" r="5" fill="#172945"/><circle cx="45" cy="31" r="5.5" fill="#000" opacity="0.12"/><circle cx="45" cy="30" r="5" fill="#172945"/><circle cx="15" cy="48" r="5.5" fill="#000" opacity="0.12"/><circle cx="15" cy="47" r="5" fill="#172945"/><circle cx="45" cy="48" r="5.5" fill="#000" opacity="0.12"/><circle cx="45" cy="47" r="5" fill="#172945"/></svg></g><g transform="translate(143 71) scale(1) rotate(-7)"><rect width="51" height="51" rx="10" fill="url(#beebo-art-14-ivory)" stroke="#d5b67e" stroke-width="2"/><svg viewBox="0 0 60 60" class="art-pips" aria-hidden="true" focusable="false" width="51" height="51"><circle cx="15" cy="16" r="5.5" fill="#000" opacity="0.12"/><circle cx="15" cy="15" r="5" fill="#172945"/><circle cx="30" cy="31" r="5.5" fill="#000" opacity="0.12"/><circle cx="30" cy="30" r="5" fill="#172945"/><circle cx="45" cy="46" r="5.5" fill="#000" opacity="0.12"/><circle cx="45" cy="45" r="5" fill="#172945"/></svg></g></svg>